{
  "accessors": [
    {
      "bufferView": 2,
      "componentType": 5126,
      "count": 65532,
      "max": [
        182.9304962158203,
        268.8241882324219,
        172.30731201171875
      ],
      "min": [
        -180.29800415039063,
        5.944962024688721,
        -178.268798828125
      ],
      "type": "VEC3"
    },
    {
      "bufferView": 2,
      "byteOffset": 786384,
      "componentType": 5126,
      "count": 65532,
      "max": [
        0.9999881386756897,
        0.9999878406524658,
        0.9999741315841675
      ],
      "min": [
        -0.9999706149101257,
        -1.0,
        -0.9999978542327881
      ],
      "type": "VEC3"
    },
    {
      "bufferView": 1,
      "componentType": 5126,
      "count": 65532,
      "max": [
        1.0,
        36.85074996948242
      ],
      "min": [
        0.0,
        0.0
      ],
      "type": "VEC2"
    },
    {
      "bufferView": 0,
      "componentType": 5125,
      "count": 166578,
      "type": "SCALAR"
    },
    {
      "bufferView": 2,
      "byteOffset": 1572768,
      "componentType": 5126,
      "count": 24004,
      "max": [
        9.104500770568848,
        268.8241882324219,
        165.993408203125
      ],
      "min": [
        -94.9688491821289,
        205.56619262695313,
        -40.47850036621094
      ],
      "type": "VEC3"
    },
    {
      "bufferView": 2,
      "byteOffset": 1860816,
      "componentType": 5126,
      "count": 24004,
      "max": [
        0.9999706745147705,
        0.999764084815979,
        0.9997423887252808
      ],
      "min": [
        -0.9999881386756897,
        -0.9999042749404907,
        -0.9999733567237854
      ],
      "type": "VEC3"
    },
    {
      "bufferView": 1,
      "byteOffset": 524256,
      "componentType": 5126,
      "count": 24004,
      "max": [
        1.0,
        27.54113006591797
      ],
      "min": [
        0.0,
        0.0
      ],
      "type": "VEC2"
    },
    {
      "bufferView": 0,
      "byteOffset": 666312,
      "componentType": 5125,
      "count": 60180,
      "type": "SCALAR"
    },
    {
      "bufferView": 2,
      "byteOffset": 2148864,
      "componentType": 5126,
      "count": 65532,
      "max": [
        210.75650024414063,
        270.2279968261719,
        179.443603515625
      ],
      "min": [
        -187.34840393066406,
        0.38149601221084595,
        -185.40509033203125
      ],
      "type": "VEC3"
    },
    {
      "bufferView": 2,
      "byteOffset": 2935248,
      "componentType": 5126,
      "count": 65532,
      "max": [
        0.9993107318878174,
        0.9999948740005493,
        0.9999867677688599
      ],
      "min": [
        -0.9972346425056458,
        -0.28357020020484924,
        -0.9999867081642151
      ],
      "type": "VEC3"
    },
    {
      "bufferView": 1,
      "byteOffset": 716288,
      "componentType": 5126,
      "count": 65532,
      "max": [
        1.0,
        1.0
      ],
      "min": [
        0.0,
        0.0
      ],
      "type": "VEC2"
    },
    {
      "bufferView": 1,
      "byteOffset": 1240544,
      "componentType": 5126,
      "count": 65532,
      "max": [
        1.0,
        1.0
      ],
      "min": [
        0.0,
        0.0
      ],
      "type": "VEC2"
    },
    {
      "bufferView": 0,
      "byteOffset": 907032,
      "componentType": 5125,
      "count": 98298,
      "type": "SCALAR"
    },
    {
      "bufferView": 2,
      "byteOffset": 3721632,
      "componentType": 5126,
      "count": 3592,
      "max": [
        97.14462280273438,
        269.07879638671875,
        177.45721435546875
      ],
      "min": [
        -119.756103515625,
        196.8524932861328,
        -185.40509033203125
      ],
      "type": "VEC3"
    },
    {
      "bufferView": 2,
      "byteOffset": 3764736,
      "componentType": 5126,
      "count": 3592,
      "max": [
        0.9536613821983337,
        0.9996314644813538,
        0.9616185426712036
      ],
      "min": [
        -0.9726321697235107,
        -0.10089968144893646,
        -0.9873943328857422
      ],
      "type": "VEC3"
    },
    {
      "bufferView": 1,
      "byteOffset": 1764800,
      "componentType": 5126,
      "count": 3592,
      "max": [
        1.0,
        1.0
      ],
      "min": [
        0.0,
        0.0
      ],
      "type": "VEC2"
    },
    {
      "bufferView": 1,
      "byteOffset": 1793536,
      "componentType": 5126,
      "count": 3592,
      "max": [
        1.0,
        1.0
      ],
      "min": [
        0.0,
        0.0
      ],
      "type": "VEC2"
    },
    {
      "bufferView": 0,
      "byteOffset": 1300224,
      "componentType": 5125,
      "count": 5388,
      "type": "SCALAR"
    },
    {
      "bufferView": 2,
      "byteOffset": 3807840,
      "componentType": 5126,
      "count": 2466,
      "max": [
        176.21060180664063,
        261.7685852050781,
        156.74960327148438
      ],
      "min": [
        -176.21029663085938,
        229.37680053710938,
        -156.74969482421875
      ],
      "type": "VEC3"
    },
    {
      "bufferView": 2,
      "byteOffset": 3837432,
      "componentType": 5126,
      "count": 2466,
      "max": [
        0.6728599071502686,
        0.7397730946540833,
        0.41092658042907715
      ],
      "min": [
        -0.6728599071502686,
        -0.746211588382721,
        -0.41092345118522644
      ],
      "type": "VEC3"
    },
    {
      "bufferView": 1,
      "byteOffset": 1822272,
      "componentType": 5126,
      "count": 2466,
      "max": [
        0.6706809997558594,
        0.9980000257492065
      ],
      "min": [
        0.0020000000949949026,
        0.0020000000949949026
      ],
      "type": "VEC2"
    },
    {
      "bufferView": 0,
      "byteOffset": 1321776,
      "componentType": 5125,
      "count": 5724,
      "type": "SCALAR"
    },
    {
      "bufferView": 2,
      "byteOffset": 3867024,
      "componentType": 5126,
      "count": 496,
      "max": [
        155.98989868164063,
        240.43890380859375,
        156.56100463867188
      ],
      "min": [
        -155.98719787597656,
        196.3625030517578,
        -156.56109619140625
      ],
      "type": "VEC3"
    },
    {
      "bufferView": 2,
      "byteOffset": 3872976,
      "componentType": 5126,
      "count": 496,
      "max": [
        1.0,
        0.8873217105865479,
        0.4998268783092499
      ],
      "min": [
        -1.0,
        -0.9032775163650513,
        -0.49982571601867676
      ],
      "type": "VEC3"
    },
    {
      "bufferView": 1,
      "byteOffset": 1842000,
      "componentType": 5126,
      "count": 496,
      "max": [
        0.9980000257492065,
        0.6980770230293274
      ],
      "min": [
        0.0020000000949949026,
        0.0020000000949949026
      ],
      "type": "VEC2"
    },
    {
      "bufferView": 0,
      "byteOffset": 1344672,
      "componentType": 5125,
      "count": 1632,
      "type": "SCALAR"
    },
    {
      "bufferView": 2,
      "byteOffset": 3878928,
      "componentType": 5126,
      "count": 468,
      "max": [
        156.66290283203125,
        214.00079345703125,
        111.58460235595703
      ],
      "min": [
        -156.6602020263672,
        52.113319396972656,
        -115.4927978515625
      ],
      "type": "VEC3"
    },
    {
      "bufferView": 2,
      "byteOffset": 3884544,
      "componentType": 5126,
      "count": 468,
      "max": [
        1.0,
        1.0,
        1.0
      ],
      "min": [
        -1.0,
        -1.0,
        -1.0
      ],
      "type": "VEC3"
    },
    {
      "bufferView": 1,
      "byteOffset": 1845968,
      "componentType": 5126,
      "count": 468,
      "max": [
        0.9923589825630188,
        0.9980000257492065
      ],
      "min": [
        0.0020000000949949026,
        0.0020000000949949026
      ],
      "type": "VEC2"
    },
    {
      "bufferView": 0,
      "byteOffset": 1351200,
      "componentType": 5125,
      "count": 1008,
      "type": "SCALAR"
    },
    {
      "bufferView": 2,
      "byteOffset": 3890160,
      "componentType": 5126,
      "count": 608,
      "max": [
        155.99020385742188,
        204.0782012939453,
        112.25389862060547
      ],
      "min": [
        -155.98989868164063,
        -3.000000106112566e-06,
        -114.82209777832031
      ],
      "type": "VEC3"
    },
    {
      "bufferView": 2,
      "byteOffset": 3897456,
      "componentType": 5126,
      "count": 608,
      "max": [
        0.9999935030937195,
        0.999992847442627,
        0.9999937415122986
      ],
      "min": [
        -0.9999935030937195,
        -0.999992847442627,
        -0.9999936819076538
      ],
      "type": "VEC3"
    },
    {
      "bufferView": 1,
      "byteOffset": 1849712,
      "componentType": 5126,
      "count": 608,
      "max": [
        0.9117540121078491,
        0.9980000257492065
      ],
      "min": [
        0.0020000000949949026,
        0.0020000000949949026
      ],
      "type": "VEC2"
    },
    {
      "bufferView": 0,
      "byteOffset": 1355232,
      "componentType": 5125,
      "count": 1512,
      "type": "SCALAR"
    },
    {
      "bufferView": 2,
      "byteOffset": 3904752,
      "componentType": 5126,
      "count": 224,
      "max": [
        181.26190185546875,
        258.1059875488281,
        143.8656005859375
      ],
      "min": [
        -181.2617950439453,
        216.78909301757813,
        -143.86549377441406
      ],
      "type": "VEC3"
    },
    {
      "bufferView": 2,
      "byteOffset": 3907440,
      "componentType": 5126,
      "count": 224,
      "max": [
        0.012943251058459282,
        0.9413184523582458,
        0.9998198747634888
      ],
      "min": [
        -0.012943431735038757,
        -0.601560652256012,
        -0.9998198747634888
      ],
      "type": "VEC3"
    },
    {
      "bufferView": 1,
      "byteOffset": 1854576,
      "componentType": 5126,
      "count": 224,
      "max": [
        0.7637630105018616,
        0.9980000257492065
      ],
      "min": [
        0.0020000000949949026,
        0.0020000000949949026
      ],
      "type": "VEC2"
    },
    {
      "bufferView": 0,
      "byteOffset": 1361280,
      "componentType": 5125,
      "count": 420,
      "type": "SCALAR"
    },
    {
      "bufferView": 2,
      "byteOffset": 3910128,
      "componentType": 5126,
      "count": 1280,
      "max": [
        157.3267059326172,
        209.41090393066406,
        108.51609802246094
      ],
      "min": [
        -157.3267059326172,
        53.802268981933594,
        -116.1592025756836
      ],
      "type": "VEC3"
    },
    {
      "bufferView": 2,
      "byteOffset": 3925488,
      "componentType": 5126,
      "count": 1280,
      "max": [
        1.0,
        1.0,
        1.0
      ],
      "min": [
        -1.0,
        -1.0,
        -1.0
      ],
      "type": "VEC3"
    },
    {
      "bufferView": 1,
      "byteOffset": 1856368,
      "componentType": 5126,
      "count": 1280,
      "max": [
        0.9980000257492065,
        0.9918799996376038
      ],
      "min": [
        0.0020000000949949026,
        0.0020000000949949026
      ],
      "type": "VEC2"
    },
    {
      "bufferView": 0,
      "byteOffset": 1362960,
      "componentType": 5125,
      "count": 1920,
      "type": "SCALAR"
    }
  ],
  "asset": {
    "extras": {
      "author": "yankobe (https://sketchfab.com/yankobe.do)",
      "license": "CC-BY-4.0 (http://creativecommons.org/licenses/by/4.0/)",
      "source": "https://sketchfab.com/3d-models/trellis-7987f51087c1465482689f8faa8d9d84",
      "title": "Trellis"
    },
    "generator": "Sketchfab-15.71.0",
    "version": "2.0"
  },
  "bufferViews": [
    {
      "buffer": 0,
      "byteLength": 1370640,
      "name": "floatBufferViews",
      "target": 34963
    },
    {
      "buffer": 0,
      "byteLength": 1866608,
      "byteOffset": 1370640,
      "byteStride": 8,
      "name": "floatBufferViews",
      "target": 34962
    },
    {
      "buffer": 0,
      "byteLength": 3940848,
      "byteOffset": 3237248,
      "byteStride": 12,
      "name": "floatBufferViews",
      "target": 34962
    }
  ],
  "buffers": [
    {
      "byteLength": 7178096,
      "uri": "scene.bin"
    }
  ],
  "images": [
    {
      "uri": "textures/Petals1_baseColor.png"
    },
    {
      "uri": "textures/Tr2x2_baseColor.jpeg"
    },
    {
      "uri": "textures/TrBeams_baseColor.jpeg"
    },
    {
      "uri": "textures/TrBrace_baseColor.jpeg"
    },
    {
      "uri": "textures/TrPosts_baseColor.jpeg"
    },
    {
      "uri": "textures/TrRafters_baseColor.jpeg"
    },
    {
      "uri": "textures/TrellisBolts_baseColor.jpeg"
    }
  ],
  "materials": [
    {
      "doubleSided": true,
      "name": "Branch",
      "pbrMetallicRoughness": {
        "baseColorFactor": [
          0.258824,
          0.219608,
          0.219608,
          1.0
        ],
        "metallicFactor": 0.0,
        "roughnessFactor": 0.9577051494623774
      }
    },
    {
      "alphaMode": "BLEND",
      "doubleSided": true,
      "name": "Petals1",
      "pbrMetallicRoughness": {
        "baseColorTexture": {
          "index": 0
        },
        "metallicFactor": 0.0,
        "roughnessFactor": 0.9577051494623774
      }
    },
    {
      "doubleSided": true,
      "name": "Tr2x2",
      "pbrMetallicRoughness": {
        "baseColorTexture": {
          "index": 1
        },
        "metallicFactor": 0.0,
        "roughnessFactor": 0.9577051494623774
      }
    },
    {
      "doubleSided": true,
      "name": "TrBeams",
      "pbrMetallicRoughness": {
        "baseColorTexture": {
          "index": 2
        },
        "metallicFactor": 0.0,
        "roughnessFactor": 0.9577051494623774
      }
    },
    {
      "doubleSided": true,
      "name": "TrBrace",
      "pbrMetallicRoughness": {
        "baseColorTexture": {
          "index": 3
        },
        "metallicFactor": 0.0,
        "roughnessFactor": 0.9577051494623774
      }
    },
    {
      "doubleSided": true,
      "name": "TrPosts",
      "pbrMetallicRoughness": {
        "baseColorTexture": {
          "index": 4
        },
        "metallicFactor": 0.0,
        "roughnessFactor": 0.9577051494623774
      }
    },
    {
      "doubleSided": true,
      "name": "TrRafters",
      "pbrMetallicRoughness": {
        "baseColorTexture": {
          "index": 5
        },
        "metallicFactor": 0.0,
        "roughnessFactor": 0.9577051494623774
      }
    },
    {
      "doubleSided": true,
      "name": "TrellisBolts",
      "pbrMetallicRoughness": {
        "baseColorTexture": {
          "index": 6
        },
        "metallicFactor": 0.0,
        "roughnessFactor": 0.9577051494623774
      }
    }
  ],
  "meshes": [
    {
      "name": "TrellisVines.Shape_Branch_0",
      "primitives": [
        {
          "attributes": {
            "NORMAL": 1,
            "POSITION": 0,
            "TEXCOORD_0": 2
          },
          "indices": 3,
          "material": 0,
          "mode": 4
        }
      ]
    },
    {
      "name": "TrellisVines.Shape_Branch_0",
      "primitives": [
        {
          "attributes": {
            "NORMAL": 5,
            "POSITION": 4,
            "TEXCOORD_0": 6
          },
          "indices": 7,
          "material": 0,
          "mode": 4
        }
      ]
    },
    {
      "name": "TrellisVines.Shape_Petals1_0",
      "primitives": [
        {
          "attributes": {
            "NORMAL": 9,
            "POSITION": 8,
            "TEXCOORD_0": 10,
            "TEXCOORD_1": 11
          },
          "indices": 12,
          "material": 1,
          "mode": 4
        }
      ]
    },
    {
      "name": "TrellisVines.Shape_Petals1_0",
      "primitives": [
        {
          "attributes": {
            "NORMAL": 14,
            "POSITION": 13,
            "TEXCOORD_0": 15,
            "TEXCOORD_1": 16
          },
          "indices": 17,
          "material": 1,
          "mode": 4
        }
      ]
    },
    {
      "name": "Trellis.Shape_Tr2x2_0",
      "primitives": [
        {
          "attributes": {
            "NORMAL": 19,
            "POSITION": 18,
            "TEXCOORD_0": 20
          },
          "indices": 21,
          "material": 2,
          "mode": 4
        }
      ]
    },
    {
      "name": "Trellis.Shape_TrBeams_0",
      "primitives": [
        {
          "attributes": {
            "NORMAL": 23,
            "POSITION": 22,
            "TEXCOORD_0": 24
          },
          "indices": 25,
          "material": 3,
          "mode": 4
        }
      ]
    },
    {
      "name": "Trellis.Shape_TrBrace_0",
      "primitives": [
        {
          "attributes": {
            "NORMAL": 27,
            "POSITION": 26,
            "TEXCOORD_0": 28
          },
          "indices": 29,
          "material": 4,
          "mode": 4
        }
      ]
    },
    {
      "name": "Trellis.Shape_TrPosts_0",
      "primitives": [
        {
          "attributes": {
            "NORMAL": 31,
            "POSITION": 30,
            "TEXCOORD_0": 32
          },
          "indices": 33,
          "material": 5,
          "mode": 4
        }
      ]
    },
    {
      "name": "Trellis.Shape_TrRafters_0",
      "primitives": [
        {
          "attributes": {
            "NORMAL": 35,
            "POSITION": 34,
            "TEXCOORD_0": 36
          },
          "indices": 37,
          "material": 6,
          "mode": 4
        }
      ]
    },
    {
      "name": "Trellis.Shape_TrellisBolts_0",
      "primitives": [
        {
          "attributes": {
            "NORMAL": 39,
            "POSITION": 38,
            "TEXCOORD_0": 40
          },
          "indices": 41,
          "material": 7,
          "mode": 4
        }
      ]
    }
  ],
  "nodes": [
    {
      "children": [
        1
      ],
      "matrix": [
        1.0,
        0.0,
        0.0,
        0.0,
        0.0,
        2.220446049250313e-16,
        -1.0,
        0.0,
        0.0,
        1.0,
        2.220446049250313e-16,
        0.0,
        0.0,
        0.0,
        0.0,
        1.0
      ],
      "name": "Sketchfab_model"
    },
    {
      "children": [
        2
      ],
      "matrix": [
        0.009999999776482582,
        0.0,
        0.0,
        0.0,
        0.0,
        0.0,
        0.009999999776482582,
        0.0,
        0.0,
        -0.009999999776482582,
        0.0,
        0.0,
        0.0,
        0.0,
        0.0,
        1.0
      ],
      "name": "Trellis.fbx"
    },
    {
      "children": [
        3
      ],
      "name": "RootNode"
    },
    {
      "children": [
        4,
        10
      ],
      "name": "Trellis"
    },
    {
      "children": [
        5
      ],
      "name": "TrellisVines"
    },
    {
      "children": [
        6,
        7,
        8,
        9
      ],
      "name": "TrellisVines.Shape"
    },
    {
      "mesh": 0,
      "name": "TrellisVines.Shape_Branch_0"
    },
    {
      "mesh": 1,
      "name": "TrellisVines.Shape_Branch_0"
    },
    {
      "mesh": 2,
      "name": "TrellisVines.Shape_Petals1_0"
    },
    {
      "mesh": 3,
      "name": "TrellisVines.Shape_Petals1_0"
    },
    {
      "children": [
        11,
        12,
        13,
        14,
        15,
        16
      ],
      "name": "Trellis.Shape"
    },
    {
      "mesh": 4,
      "name": "Trellis.Shape_Tr2x2_0"
    },
    {
      "mesh": 5,
      "name": "Trellis.Shape_TrBeams_0"
    },
    {
      "mesh": 6,
      "name": "Trellis.Shape_TrBrace_0"
    },
    {
      "mesh": 7,
      "name": "Trellis.Shape_TrPosts_0"
    },
    {
      "mesh": 8,
      "name": "Trellis.Shape_TrRafters_0"
    },
    {
      "mesh": 9,
      "name": "Trellis.Shape_TrellisBolts_0"
    }
  ],
  "samplers": [
    {
      "magFilter": 9729,
      "minFilter": 9987,
      "wrapS": 10497,
      "wrapT": 10497
    }
  ],
  "scene": 0,
  "scenes": [
    {
      "name": "Sketchfab_Scene",
      "nodes": [
        0
      ]
    }
  ],
  "textures": [
    {
      "sampler": 0,
      "source": 0
    },
    {
      "sampler": 0,
      "source": 1
    },
    {
      "sampler": 0,
      "source": 2
    },
    {
      "sampler": 0,
      "source": 3
    },
    {
      "sampler": 0,
      "source": 4
    },
    {
      "sampler": 0,
      "source": 5
    },
    {
      "sampler": 0,
      "source": 6
    }
  ]
}
