{
  "accessors": [
    {
      "bufferView": 2,
      "componentType": 5126,
      "count": 6484,
      "max": [
        0.4168890118598938,
        1.0,
        0.9778770208358765
      ],
      "min": [
        -0.4168890118598938,
        -1.0,
        -0.9778770208358765
      ],
      "type": "VEC3"
    },
    {
      "bufferView": 2,
      "byteOffset": 77808,
      "componentType": 5126,
      "count": 6484,
      "max": [
        0.9998149871826172,
        0.9997369050979614,
        1.0
      ],
      "min": [
        -0.9999978542327881,
        -0.9999987483024597,
        -0.9999558925628662
      ],
      "type": "VEC3"
    },
    {
      "bufferView": 3,
      "componentType": 5126,
      "count": 6484,
      "max": [
        0.9999714493751526,
        0.9999991059303284,
        1.0,
        1.0
      ],
      "min": [
        -0.9996134638786316,
        -0.9996197819709778,
        -0.9991034865379333,
        -1.0
      ],
      "type": "VEC4"
    },
    {
      "bufferView": 1,
      "componentType": 5126,
      "count": 6484,
      "max": [
        0.9985529780387878,
        0.9920989871025085
      ],
      "min": [
        -0.5249469876289368,
        -1.736799955368042
      ],
      "type": "VEC2"
    },
    {
      "bufferView": 0,
      "componentType": 5125,
      "count": 33516,
      "type": "SCALAR"
    }
  ],
  "asset": {
    "extras": {
      "author": "Bwinji Shamutete (https://sketchfab.com/MangyMedusa)",
      "license": "CC-BY-4.0 (http://creativecommons.org/licenses/by/4.0/)",
      "source": "https://sketchfab.com/3d-models/seagull-dd79fddb754f47caa3145e7d184e3e58",
      "title": "Seagull"
    },
    "generator": "Sketchfab-12.66.0",
    "version": "2.0"
  },
  "bufferViews": [
    {
      "buffer": 0,
      "byteLength": 134064,
      "name": "floatBufferViews",
      "target": 34963
    },
    {
      "buffer": 0,
      "byteLength": 51872,
      "byteOffset": 134064,
      "byteStride": 8,
      "name": "floatBufferViews",
      "target": 34962
    },
    {
      "buffer": 0,
      "byteLength": 155616,
      "byteOffset": 185936,
      "byteStride": 12,
      "name": "floatBufferViews",
      "target": 34962
    },
    {
      "buffer": 0,
      "byteLength": 103744,
      "byteOffset": 341552,
      "byteStride": 16,
      "name": "floatBufferViews",
      "target": 34962
    }
  ],
  "buffers": [
    {
      "byteLength": 445296,
      "uri": "scene.bin"
    }
  ],
  "images": [
    {
      "uri": "textures/Material__49_baseColor.jpeg"
    },
    {
      "uri": "textures/Material__49_metallicRoughness.png"
    },
    {
      "uri": "textures/Material__49_normal.png"
    }
  ],
  "materials": [
    {
      "doubleSided": true,
      "name": "Material__49",
      "normalTexture": {
        "index": 2,
        "scale": 0.8225334257519654
      },
      "occlusionTexture": {
        "index": 1
      },
      "pbrMetallicRoughness": {
        "baseColorTexture": {
          "index": 0
        },
        "metallicRoughnessTexture": {
          "index": 1
        }
      }
    }
  ],
  "meshes": [
    {
      "name": "defaultMaterial",
      "primitives": [
        {
          "attributes": {
            "NORMAL": 1,
            "POSITION": 0,
            "TANGENT": 2,
            "TEXCOORD_0": 3
          },
          "indices": 4,
          "material": 0,
          "mode": 4
        }
      ]
    }
  ],
  "nodes": [
    {
      "children": [
        1
      ],
      "matrix": [
        1.0,
        0.0,
        0.0,
        0.0,
        0.0,
        2.220446049250313e-16,
        -1.0,
        0.0,
        0.0,
        1.0,
        2.220446049250313e-16,
        0.0,
        0.0,
        0.0,
        0.0,
        1.0
      ],
      "name": "Sketchfab_model"
    },
    {
      "children": [
        2
      ],
      "matrix": [
        1.0,
        0.0,
        0.0,
        0.0,
        0.0,
        -4.371139006309477e-08,
        0.999999999999999,
        0.0,
        0.0,
        -0.999999999999999,
        -4.371139006309477e-08,
        0.0,
        0.0,
        0.0,
        0.0,
        1.0
      ],
      "name": "Collada visual scene group"
    },
    {
      "children": [
        3
      ],
      "name": "Seagull"
    },
    {
      "mesh": 0,
      "name": "defaultMaterial"
    }
  ],
  "samplers": [
    {
      "magFilter": 9729,
      "minFilter": 9987,
      "wrapS": 10497,
      "wrapT": 10497
    }
  ],
  "scene": 0,
  "scenes": [
    {
      "name": "Sketchfab_Scene",
      "nodes": [
        0
      ]
    }
  ],
  "textures": [
    {
      "sampler": 0,
      "source": 0
    },
    {
      "sampler": 0,
      "source": 1
    },
    {
      "sampler": 0,
      "source": 2
    }
  ]
}
